<svg width="86.824585" height="86.632812" viewBox="0 0 86.8246 86.6328" fill="none" xmlns="http://www.w3.org/2000/svg" xmlns:xlink="http://www.w3.org/1999/xlink">
	<desc>
			Created with Pixso.
	</desc>
	<defs/>
	<path id="Vector" d="M8.86 21.92C3.25 19.57 1.1 21.04 1.1 27.22C1.1 32.04 1.38 36.89 1.03 41.68C0.6 47.55 3.02 52.23 5.49 57.31C8.65 63.81 13.37 68.71 18.45 73.39C21.41 76.11 22.8 79.05 22.3 82.98C22.2 83.79 22.4 84.64 22.48 85.63L39.21 85.63C39.21 79.46 39.28 73.46 39.15 67.45C39.13 66.5 38.45 65.41 37.77 64.66C32.18 58.49 26.46 52.44 20.91 46.24C19.85 45.06 18.61 44.91 17.2 44.64C16.13 45.62 15.22 46.94 14.51 48.4" stroke="#000000" stroke-opacity="1.000000" stroke-width="2.000000" stroke-linejoin="round" stroke-linecap="round"/>
	<path id="Vector" d="M72.39 48.39L70.17 44.96C66.88 43.96 65.39 46.56 64.02 48.13C59.76 53.05 55.26 57.73 50.83 62.48C48.64 64.83 47.43 67.27 47.61 70.63C47.89 75.56 47.69 80.51 47.69 85.62L64.86 85.62C62.31 77.31 68.34 73.31 73.15 68.92C79.07 63.5 81.61 56.1 85.47 49.47C86.04 48.5 85.77 47.56 85.77 46.63C85.82 40.16 85.8 33.69 85.8 27.22C85.8 21.03 83.65 19.57 78.04 21.92" stroke="#000000" stroke-opacity="1.000000" stroke-width="2.000000" stroke-linejoin="round" stroke-linecap="round"/>
	<path id="Vector" d="M43.45 4.98C42.51 4.4 41.53 3.86 40.63 3.21C34.9 -0.85 29.52 1.25 26.2 5.02C22.64 9.06 22.46 15.36 26.56 19.4C31.94 24.73 37.68 29.71 43.43 34.99C47.09 31.7 50.57 28.59 54.03 25.45C55.94 23.71 57.81 21.93 59.68 20.16C63.98 16.05 64.91 9.63 60.33 4.68C56.26 0.29 49.09 0.54 43.46 4.97" stroke="#000000" stroke-opacity="1.000000" stroke-width="2.000000" stroke-linejoin="round" stroke-linecap="round"/>
	<path id="Vector" d="M16.98 44.51C16.2 39.23 16.62 33.92 16.73 28.63C16.77 26.5 16.48 24.4 16.58 22.28C16.72 19.39 15.46 18.04 13.1 18.04C10.93 18.04 8.97 20.16 9.25 22.63C9.95 28.74 9.32 34.87 9.59 40.98C9.64 42.06 9.26 43.13 10.24 44.19C15.49 49.83 19.14 56.79 24.74 62.16" stroke="#000000" stroke-opacity="1.000000" stroke-width="2.000000" stroke-linejoin="round" stroke-linecap="round"/>
	<path id="Vector" d="M69.92 44.51C70.7 39.23 70.28 33.92 70.17 28.63C70.12 26.5 70.42 24.4 70.32 22.28C70.18 19.39 71.43 18.04 73.8 18.04C75.97 18.04 77.93 20.16 77.64 22.63C76.94 28.74 77.57 34.87 77.31 40.98C77.26 42.06 77.64 43.13 76.66 44.19C71.4 49.83 67.76 56.79 62.15 62.16" stroke="#000000" stroke-opacity="1.000000" stroke-width="2.000000" stroke-linejoin="round" stroke-linecap="round"/>
	<path id="Vector" d="M30.21 54.75C31.37 50.55 30.73 46.26 30.64 42.04C30.58 39.32 28.45 38.76 24.39 39.92" stroke="#000000" stroke-opacity="1.000000" stroke-width="2.000000" stroke-linejoin="round" stroke-linecap="round"/>
	<path id="Vector" d="M62.51 39.92C57.74 38.2 55.54 39.91 56.13 44.87C56.52 48.14 55.55 51.5 56.68 54.75" stroke="#000000" stroke-opacity="1.000000" stroke-width="2.000000" stroke-linejoin="round" stroke-linecap="round"/>
	<path id="Vector" d="M22.98 47.69C24.15 44.34 23.65 40.88 23.68 37.45C23.7 35.69 23.52 33.9 23.72 32.16C24.3 27.2 22.1 25.49 17.34 27.22" stroke="#000000" stroke-opacity="1.000000" stroke-width="2.000000" stroke-linejoin="round" stroke-linecap="round"/>
	<path id="Vector" d="M69.56 27.22C64.8 25.49 62.73 27.19 63.15 32.16C63.46 35.9 63.27 39.69 63.18 43.45C63.15 44.94 63.43 46.32 63.92 47.69" stroke="#000000" stroke-opacity="1.000000" stroke-width="2.000000" stroke-linejoin="round" stroke-linecap="round"/>
</svg>
