<svg width="95.000000" height="95.000000" viewBox="0 0 95 95" fill="none" xmlns="http://www.w3.org/2000/svg" xmlns:xlink="http://www.w3.org/1999/xlink">
	<desc>
			Created with Pixso.
	</desc>
	<defs>
		<clipPath id="clip1_280">
			<rect id="Frame" width="95.000000" height="95.000000" fill="white" fill-opacity="0"/>
		</clipPath>
	</defs>
	<rect id="Frame" width="95.000000" height="95.000000" fill="#FFFFFF" fill-opacity="0"/>
	<g clip-path="url(#clip1_280)">
		<path id="Vector" d="M33.35 21.92L35.37 21.96C35.43 21.96 35.51 21.94 35.56 21.97C36.13 22.27 36.79 22.16 37.39 22.35C38.09 22.57 38.8 22.77 39.49 23.04C41.15 23.67 42.68 24.52 44.03 25.7C45.36 26.87 46.58 28.13 47.51 29.66C47.95 30.38 48.36 31.12 48.69 31.89C48.99 32.59 49.24 33.31 49.43 34.05C49.55 34.49 49.58 34.96 49.74 35.39C49.8 35.52 49.84 35.66 49.86 35.81C50.06 37.05 50.06 38.3 49.99 39.54C49.95 40.21 49.85 40.88 49.69 41.53C49.57 42.1 49.4 42.65 49.26 43.21C48.89 44.58 48.25 45.86 47.38 46.98C46.74 47.81 46.04 48.59 45.4 49.42C44.63 50.42 44 51.52 43.52 52.7C43.23 53.41 42.93 54.14 42.76 54.88C42.6 55.56 42.3 56.22 42.32 56.93C42.32 57.05 42.28 57.17 42.23 57.27C42.11 57.53 42.1 57.8 42.08 58.08C42.04 58.54 41.94 59 41.73 59.41C41.44 59.94 40.96 60.19 40.33 60.18C38.54 60.17 36.74 60.21 34.95 60.16C34.37 60.14 33.78 60.17 33.2 60.18C32.94 60.18 32.68 60.19 32.43 60.07C32.41 60.05 32.37 60.03 32.34 60.03C32.31 60.03 32.27 60.04 32.24 60.05C31.92 60.22 31.56 60.18 31.22 60.18C29.44 60.18 27.66 60.17 25.88 60.18C25.54 60.18 25.33 60.09 25.14 59.8C24.78 59.25 24.67 58.64 24.57 58.01C24.48 57.44 24.45 56.86 24.21 56.32C24.08 56.03 24.12 55.69 24.03 55.37C23.76 54.47 23.48 53.57 23.13 52.7C22.45 51.02 21.43 49.56 20.24 48.2C19.27 47.08 18.36 45.91 17.83 44.5C17.51 43.65 17.24 42.77 17.04 41.88C16.89 41.22 16.81 40.55 16.7 39.89C16.52 38.79 16.55 37.67 16.7 36.57C16.82 35.66 16.99 34.75 17.24 33.87C17.47 33.06 17.76 32.26 18.14 31.5C18.71 30.34 19.35 29.23 20.15 28.21C21.32 26.71 22.72 25.47 24.31 24.44C25.04 23.97 25.8 23.56 26.6 23.23C27.42 22.9 28.25 22.57 29.12 22.39C30.19 22.18 31.24 21.87 32.36 21.96C32.67 21.98 32.99 21.94 33.31 21.92" stroke="#000000" stroke-opacity="1.000000" stroke-width="2.000000" stroke-linejoin="round" stroke-linecap="round"/>
		<path id="Vector" d="M25.34 60.17C25.28 60.34 25.19 60.5 25.07 60.63C24.82 60.93 24.75 61.27 24.76 61.66C24.79 62.47 25.36 63.07 26.18 63.07L40.52 63.07C40.79 63.07 41.05 63.14 41.28 63.29C41.5 63.44 41.68 63.66 41.78 63.91C42.01 64.48 41.9 65.08 41.51 65.48C41.23 65.77 40.9 65.91 40.48 65.91C36.13 65.89 31.78 65.89 27.44 65.9C26.57 65.9 25.95 66.52 25.95 67.39C25.95 68.2 26.58 68.8 27.44 68.8L38.65 68.8C39.63 68.8 40.32 69.67 40.1 70.63C40.03 70.9 39.87 71.15 39.65 71.33C39.43 71.51 39.16 71.61 38.88 71.62C36.27 71.7 33.66 71.64 31.06 71.65C30.58 71.65 30.13 71.73 29.73 71.97C29.53 72.09 29.39 72.09 29.23 71.96C29.06 71.83 28.86 71.74 28.65 71.71" stroke="#000000" stroke-opacity="1.000000" stroke-width="2.000000" stroke-linejoin="round" stroke-linecap="round"/>
		<path id="Vector" d="M34.38 45.42C34.39 46.06 34.17 46.68 34.2 47.32C34.21 47.45 34.19 47.58 34.19 47.7C34.19 51.8 34.19 55.89 34.19 59.98" stroke="#000000" stroke-opacity="1.000000" stroke-width="2.000000" stroke-linejoin="round" stroke-linecap="round"/>
		<path id="Vector" d="M35.14 44.81C35.14 44.13 35.58 43.7 36.02 43.28C36.48 42.83 37.02 42.49 37.63 42.27C37.97 42.15 38.41 42.08 38.76 42.33C39.13 42.6 39.23 42.99 39.11 43.43C39.03 43.73 38.8 43.9 38.57 44.08C38.22 44.36 37.81 44.5 37.4 44.67C36.99 44.84 36.56 44.79 36.17 44.99C35.94 45.1 35.67 45.07 35.45 44.95C35.17 44.8 34.96 44.84 34.76 45.07C34.53 45.36 34.27 45.37 33.92 45.28C33.44 45.16 32.93 45.18 32.43 45.3C32.15 45.37 32.08 45.58 32.13 45.83C32.29 46.53 32.32 47.23 32.32 47.93C32.32 51.95 32.32 55.97 32.32 59.98" stroke="#000000" stroke-opacity="1.000000" stroke-width="2.000000" stroke-linejoin="round" stroke-linecap="round"/>
		<path id="Vector" d="M31.36 44.77C31.3 44.04 30.86 43.56 30.33 43.13C29.89 42.76 29.4 42.44 28.84 42.27C28.5 42.16 28.09 42.1 27.74 42.33C27.42 42.54 27.27 42.86 27.33 43.24C27.39 43.68 27.71 43.96 28.05 44.19C28.6 44.56 29.23 44.74 29.88 44.84C29.95 44.86 30.04 44.85 30.1 44.89C30.55 45.17 30.96 45.04 31.36 44.79L32.17 45.42" stroke="#000000" stroke-opacity="1.000000" stroke-width="2.000000" stroke-linejoin="round" stroke-linecap="round"/>
		<path id="Vector" d="M28.05 9.26C28.05 9.55 28.1 9.83 28.18 10.11C28.33 10.62 28.35 11.17 28.43 11.7C28.44 11.79 28.42 11.88 28.46 11.97C28.69 12.57 28.7 13.22 28.85 13.84C29.01 14.48 29.1 15.14 29.23 15.79C29.33 16.33 29.46 16.87 29.51 17.42C29.54 17.79 29.71 18.15 29.69 18.53" stroke="#000000" stroke-opacity="1.000000" stroke-width="2.000000" stroke-linejoin="round" stroke-linecap="round"/>
		<path id="Vector" d="M40.75 9C40.89 9.4 40.85 9.77 40.73 10.18C40.63 10.56 40.56 10.98 40.45 11.35C40.28 11.92 40.14 12.5 39.99 13.08C39.74 14.04 39.46 15 39.23 15.97C39.12 16.41 39.05 16.88 38.86 17.32C38.68 17.7 38.64 18.15 38.55 18.56C38.27 18.59 38 18.52 37.73 18.61" stroke="#000000" stroke-opacity="1.000000" stroke-width="2.000000" stroke-linejoin="round" stroke-linecap="round"/>
		<path id="Vector" d="M63.59 38.36C62.93 38.29 62.27 38.36 61.61 38.35C60.47 38.32 59.34 38.36 58.21 38.34C57.18 38.32 56.15 38.33 55.12 38.36C54.82 38.37 54.52 38.27 54.21 38.34" stroke="#000000" stroke-opacity="1.000000" stroke-width="2.000000" stroke-linejoin="round" stroke-linecap="round"/>
		<path id="Vector" d="M12.26 38.34C11.51 38.29 10.76 38.26 10.01 38.35C9.4 38.42 8.79 38.27 8.18 38.29C7.06 38.34 5.94 38.34 4.82 38.29C4.2 38.27 3.58 38.34 2.95 38.36" stroke="#000000" stroke-opacity="1.000000" stroke-width="2.000000" stroke-linejoin="round" stroke-linecap="round"/>
		<path id="Vector" d="M60 25.85C58.56 26.53 57.1 27.19 55.66 27.87C54.51 28.41 53.37 28.97 52.22 29.51" stroke="#000000" stroke-opacity="1.000000" stroke-width="2.000000" stroke-linejoin="round" stroke-linecap="round"/>
		<path id="Vector" d="M7.57 23.89C7.83 23.81 7.96 24.05 8.14 24.15C9.34 24.78 10.51 25.48 11.69 26.15C12.79 26.76 13.87 27.38 14.97 27.98C15.1 28.06 15.25 28.09 15.39 28.14" stroke="#000000" stroke-opacity="1.000000" stroke-width="2.000000" stroke-linejoin="round" stroke-linecap="round"/>
		<path id="Vector" d="M59.17 52.78C58.77 52.8 58.49 52.5 58.18 52.34C56.66 51.51 55.18 50.62 53.67 49.77C52.92 49.34 52.15 48.94 51.38 48.52" stroke="#000000" stroke-opacity="1.000000" stroke-width="2.000000" stroke-linejoin="round" stroke-linecap="round"/>
		<path id="Vector" d="M15.04 48.56C13.16 49.62 11.28 50.68 9.4 51.74C8.82 52.07 8.23 52.37 7.65 52.7C7.48 52.8 7.32 52.76 7.15 52.78" stroke="#000000" stroke-opacity="1.000000" stroke-width="2.000000" stroke-linejoin="round" stroke-linecap="round"/>
		<path id="Vector" d="M21.41 21.73C21.34 21.32 21.01 21.07 20.79 20.75C19.99 19.57 19.15 18.43 18.32 17.27C17.67 16.37 17.01 15.48 16.39 14.56C16.27 14.38 16.15 14.38 16 14.37" stroke="#000000" stroke-opacity="1.000000" stroke-width="2.000000" stroke-linejoin="round" stroke-linecap="round"/>
		<path id="Vector" d="M52.21 15.14C52.36 15.63 52.04 15.95 51.76 16.28C50.88 17.32 49.98 18.36 49.1 19.41C48.28 20.39 47.47 21.39 46.65 22.38C46.6 22.45 46.55 22.53 46.53 22.61C46.5 22.7 46.49 22.79 46.5 22.88" stroke="#000000" stroke-opacity="1.000000" stroke-width="2.000000" stroke-linejoin="round" stroke-linecap="round"/>
		<path id="Vector" d="M29.53 72.11C29.57 72.53 29.75 72.94 30.04 73.25C30.41 73.65 30.73 74.08 30.95 74.59C31.24 75.25 31.69 75.76 32.39 76C33.24 76.28 34.05 76.21 34.79 75.72C35.08 75.53 35.32 75.24 35.52 74.93C35.69 74.67 35.78 74.4 35.75 74.09" stroke="#000000" stroke-opacity="1.000000" stroke-width="2.000000" stroke-linejoin="round" stroke-linecap="round"/>
		<path id="Vector" d="M39.64 17.69C39.41 17.68 39.18 17.72 38.95 17.65" stroke="#000000" stroke-opacity="1.000000" stroke-width="2.000000" stroke-linejoin="round" stroke-linecap="round"/>
		<path id="Vector" d="M32.63 76.09L32.63 82.66C32.63 83.39 32.78 84.11 33.06 84.78C33.34 85.46 33.75 86.07 34.26 86.58C34.78 87.1 35.39 87.51 36.07 87.79C36.74 88.07 37.47 88.21 38.2 88.21L82.08 88.13C82.64 88.13 83.19 88.02 83.7 87.81C84.21 87.59 84.68 87.28 85.07 86.89C85.46 86.5 85.77 86.03 85.98 85.52C86.2 85.01 86.3 84.46 86.3 83.9L86.29 77.48C86.76 77.19 87.04 76.74 87.26 76.23C87.59 75.5 87.96 74.78 88.34 74.07C88.5 73.78 88.6 73.46 88.64 73.12C88.65 73.04 88.62 72.93 88.69 72.89C89.36 72.45 89.54 71.68 89.88 71.04C90.82 69.28 91.7 67.49 92.59 65.72C92.66 65.59 92.75 65.43 92.72 65.3C92.59 64.62 92.91 63.99 92.91 63.33C92.91 51.33 92.91 39.33 92.91 27.33C92.91 26.95 92.89 26.58 92.77 26.23C92.73 26.15 92.72 26.06 92.74 25.98C93.07 24.5 93 23.02 92.73 21.55C92.32 19.33 90.33 17.46 88.1 17.13C86.73 16.93 85.34 16.88 83.98 17.23C82.79 17.54 81.73 18.23 80.96 19.19C80.19 20.14 79.74 21.33 79.69 22.56C79.66 23.38 79.69 24.22 79.69 25.05C79.69 25.38 79.67 25.71 79.83 26.01C79.88 26.1 79.9 26.19 79.86 26.26C79.6 26.68 79.69 27.15 79.69 27.61C79.69 39.47 79.69 51.33 79.69 63.19C79.69 63.63 79.65 64.06 79.86 64.47C79.88 64.5 79.93 64.5 79.9 64.58C79.65 65.2 79.99 65.72 80.25 66.23C81.25 68.23 82.22 70.24 83.32 72.17C83.69 72.83 83.97 73.5 84.27 74.19C84.62 75.01 85.12 75.76 85.47 76.58C85.58 76.81 85.73 77.01 85.91 77.18C86.14 77.39 86.41 77.58 86.3 77.97" stroke="#000000" stroke-opacity="1.000000" stroke-width="2.000000" stroke-linejoin="round" stroke-linecap="round"/>
		<path id="Vector" d="M83.8 31.66C83.96 31.76 83.94 31.92 83.94 32.07C83.94 32.6 83.94 33.13 83.94 33.66C83.94 41.83 83.94 50 83.94 58.17C83.94 58.48 83.89 58.8 84.22 59" stroke="#000000" stroke-opacity="1.000000" stroke-width="2.000000" stroke-linejoin="round" stroke-linecap="round"/>
		<path id="Vector" d="M88.61 31.9L88.61 58.76" stroke="#000000" stroke-opacity="1.000000" stroke-width="2.000000" stroke-linejoin="round" stroke-linecap="round"/>
		<path id="Vector" d="M79.92 26.12C81.01 26.06 82.09 26.11 83.18 26.12C85.08 26.12 86.99 26.06 88.89 26.1C90.14 26.12 91.38 26.08 92.63 26.09" stroke="#000000" stroke-opacity="1.000000" stroke-width="2.000000" stroke-linejoin="round" stroke-linecap="round"/>
		<path id="Vector" d="M79.99 64.54C80.32 64.52 80.64 64.47 80.96 64.47C84.49 64.47 88.02 64.47 91.56 64.47C91.92 64.47 92.28 64.47 92.63 64.57" stroke="#000000" stroke-opacity="1.000000" stroke-width="2.000000" stroke-linejoin="round" stroke-linecap="round"/>
		<path id="Vector" d="M88.61 72.95C88.35 72.74 88.04 72.67 87.71 72.67C86.74 72.68 85.77 72.68 84.8 72.67C84.5 72.67 84.2 72.75 83.94 72.92" stroke="#000000" stroke-opacity="1.000000" stroke-width="2.000000" stroke-linejoin="round" stroke-linecap="round"/>
	</g>
</svg>
