<svg width="89.855377" height="89.829102" viewBox="0 0 89.8554 89.8291" fill="none" xmlns="http://www.w3.org/2000/svg" xmlns:xlink="http://www.w3.org/1999/xlink">
	<desc>
			Created with Pixso.
	</desc>
	<defs/>
	<path id="Vector" d="M72.99 79.38C73.19 78.65 73.66 78.1 74.21 77.63C78.03 74.31 81.1 70.37 83.54 65.96C85.88 61.73 87.47 57.2 88.24 52.43C88.78 49.13 88.98 45.8 88.77 42.43C88.45 37.5 87.41 32.8 85.54 28.24C83.54 23.36 80.74 19.03 77.18 15.15C74.47 12.2 71.44 9.66 68.04 7.58C63.31 4.68 58.24 2.71 52.76 1.71C49.03 1.02 45.22 0.83 41.43 1.14C35.56 1.6 29.96 3.19 24.7 5.99C19.61 8.7 15.25 12.21 11.49 16.56C9.15 19.28 7.22 22.24 5.61 25.4C3.8 28.93 2.59 32.69 1.82 36.6C1.3 39.22 1.06 41.87 1 44.52C0.95 47.17 1.16 49.82 1.64 52.43C2.48 57.01 3.94 61.41 6.15 65.51C7.7 68.4 9.57 71.1 11.72 73.57C14.55 76.83 17.77 79.6 21.41 81.92C26.06 84.9 31.05 86.95 36.48 87.97C39.47 88.54 42.45 88.98 45.5 88.79" stroke="#000000" stroke-opacity="1.000000" stroke-width="2.000000" stroke-linejoin="round" stroke-linecap="round"/>
	<path id="Vector" d="M55.29 28.79C55.68 27.89 55.54 26.99 55.16 26.16C54.34 24.35 53.44 22.6 52.33 20.91C51.35 19.43 50.37 17.93 49.33 16.49C48.6 15.48 47.76 14.54 46.92 13.62C46.06 12.68 44.04 12.64 43.1 13.63C41.26 15.57 39.5 17.62 38.2 19.93C37.23 21.67 35.88 23.2 35.24 25.16C34.89 26.25 34.43 27.29 34.51 28.46C34.55 29.1 33.98 29.47 33.92 30.11C33.62 33.9 34.85 37.1 37.59 39.67C39.6 41.55 42.03 42.56 44.95 42.54L44.95 75.42" stroke="#000000" stroke-opacity="1.000000" stroke-width="2.000000" stroke-linejoin="round" stroke-linecap="round"/>
	<path id="Vector" d="M57.27 43.53C57.63 44.18 57.75 44.87 57.71 45.62C57.55 48.56 57.92 51.48 57.96 54.42C57.98 56.11 59.2 57.21 60.9 57.38C63.71 57.67 66.54 57.64 69.36 57.59C70.24 57.57 71.11 57.76 71.89 58.16" stroke="#000000" stroke-opacity="1.000000" stroke-width="2.000000" stroke-linejoin="round" stroke-linecap="round"/>
	<path id="Vector" d="M32.63 43.53C32.27 44.18 32.15 44.87 32.18 45.62C32.34 48.56 32.02 51.48 31.94 54.42C31.9 56.11 30.7 57.2 29 57.38C26.26 57.67 23.5 57.63 20.75 57.59C19.81 57.58 18.87 57.77 18 58.16" stroke="#000000" stroke-opacity="1.000000" stroke-width="2.000000" stroke-linejoin="round" stroke-linecap="round"/>
	<path id="Vector" d="M54.85 60.69C59.45 65.32 67.25 64.7 71.27 59.64C72.2 58.46 73.28 57.2 73.78 55.63C74.22 54.24 75.06 52.94 75.05 51.45C75.04 50.49 75.61 49.79 75.74 48.92C76.04 46.98 76.35 45.06 76.46 43.09C76.52 42 76.55 41.08 75.99 40.1C75.51 39.27 74.8 39.02 73.98 38.92C72.54 38.73 71.12 39.07 69.7 39.16C68.54 39.23 67.39 39.45 66.29 39.81C64.12 40.55 61.75 40.54 59.68 41.64C58.84 42.08 57.94 42.4 57.4 43.21C57.31 43.35 57.19 43.45 57.04 43.51C53.71 44.58 52.57 47.49 51.84 50.37C50.88 54.18 51.85 57.71 54.74 60.58" stroke="#000000" stroke-opacity="1.000000" stroke-width="2.000000" stroke-linejoin="round" stroke-linecap="round"/>
	<path id="Vector" d="M35.16 60.58C39.24 56.68 39.41 50.03 35.73 45.61C34.93 44.65 34.21 43.7 32.85 43.51C32.38 43.44 32.32 42.77 31.87 42.53C29.75 41.44 27.66 40.28 25.15 40.44C25.03 40.45 24.92 40.41 24.83 40.33C23.99 39.55 22.84 39.51 21.85 39.41C20.1 39.22 18.36 38.82 16.57 38.9C15.02 38.97 13.91 39.69 13.4 41.11C13.28 41.43 13.24 41.77 13.29 42.1C13.65 44.32 13.6 46.61 14.15 48.81C14.17 48.88 14.13 48.96 14.16 49.03C15.04 51.45 15.14 54.11 16.46 56.4C16.77 56.93 16.98 57.5 17.55 57.84C17.73 57.95 17.93 58.07 18.02 58.37C18.74 60.73 20.71 61.81 22.74 62.77C26.87 64.72 31.96 63.87 35.05 60.69" stroke="#000000" stroke-opacity="1.000000" stroke-width="2.000000" stroke-linejoin="round" stroke-linecap="round"/>
	<path id="Vector" d="M45.06 36.82C46.08 36.71 46.87 36.24 47.6 35.51C49.47 33.64 51.39 31.83 53.31 30C53.85 29.49 54.41 28.98 55.22 28.78C56.2 29.84 56.21 31.03 56 32.43C55.75 34.07 55.36 35.66 54.49 37.02C52.3 40.43 49.26 42.5 44.95 42.54L44.95 13.07" stroke="#000000" stroke-opacity="1.000000" stroke-width="2.000000" stroke-linejoin="round" stroke-linecap="round"/>
	<path id="Vector" d="M64.96 40.56C65.4 42.01 65.11 43.49 65.18 44.96C65.24 46.32 65.32 47.62 66.14 48.83C66.75 49.73 67.52 50.08 68.48 50.11C70.1 50.17 71.71 50.14 73.32 50.12C73.89 50.11 74.44 50.17 74.97 50.35" stroke="#000000" stroke-opacity="1.000000" stroke-width="2.000000" stroke-linejoin="round" stroke-linecap="round"/>
	<path id="Vector" d="M24.94 40.56C24.69 41.16 24.72 41.8 24.71 42.43C24.69 43.93 24.8 45.46 24.57 46.93C24.26 48.8 23.13 50.16 21.31 50.13C19.73 50.11 18.15 50.14 16.58 50.12C16.01 50.11 15.46 50.17 14.93 50.35" stroke="#000000" stroke-opacity="1.000000" stroke-width="2.000000" stroke-linejoin="round" stroke-linecap="round"/>
	<path id="Vector" d="M34.72 28.68C35.36 28.81 35.81 29.23 36.27 29.67C38.45 31.77 40.66 33.85 42.86 35.94C43.42 36.48 44.04 36.8 44.84 36.71" stroke="#000000" stroke-opacity="1.000000" stroke-width="2.000000" stroke-linejoin="round" stroke-linecap="round"/>
	<path id="Vector" d="M58.37 56.95C54.7 60.61 50.98 64.23 47.39 67.97C46.02 69.41 43.88 69.41 42.5 67.97C38.91 64.23 35.2 60.61 31.53 56.95" stroke="#000000" stroke-opacity="1.000000" stroke-width="2.000000" stroke-linejoin="round" stroke-linecap="round"/>
	<path id="Vector" d="M71.29 71.35C71.31 73.26 71.34 75.17 71.34 77.07C71.34 77.71 71.46 78.27 71.76 78.85C71.96 79.23 72.2 79.26 72.54 79.41C74.93 80.48 77.47 79.83 79.92 80.1" stroke="#000000" stroke-opacity="1.000000" stroke-width="2.000000" stroke-linejoin="round" stroke-linecap="round"/>
	<path id="Vector" d="M75.19 40.23L66.72 48.59" stroke="#000000" stroke-opacity="1.000000" stroke-width="2.000000" stroke-linejoin="round" stroke-linecap="round"/>
	<path id="Vector" d="M14.81 40.23L23.17 48.59" stroke="#000000" stroke-opacity="1.000000" stroke-width="2.000000" stroke-linejoin="round" stroke-linecap="round"/>
	<path id="Vector" d="M52.1 20.98C50.37 22.02 49.22 23.68 47.71 24.96C46.91 25.63 46.16 26.31 45.06 26.37" stroke="#000000" stroke-opacity="1.000000" stroke-width="2.000000" stroke-linejoin="round" stroke-linecap="round"/>
	<path id="Vector" d="M38.02 21.09C39.69 22.34 41.11 23.87 42.63 25.29C43.28 25.9 43.96 26.3 44.84 26.37" stroke="#000000" stroke-opacity="1.000000" stroke-width="2.000000" stroke-linejoin="round" stroke-linecap="round"/>
	<path id="Vector" d="M23.94 49.47L30.65 56.06" stroke="#000000" stroke-opacity="1.000000" stroke-width="2.000000" stroke-linejoin="round" stroke-linecap="round"/>
	<path id="Vector" d="M65.95 49.47L59.25 56.06" stroke="#000000" stroke-opacity="1.000000" stroke-width="2.000000" stroke-linejoin="round" stroke-linecap="round"/>
</svg>
