<svg width="91.604736" height="91.932129" viewBox="0 0 91.6047 91.9321" fill="none" xmlns="http://www.w3.org/2000/svg" xmlns:xlink="http://www.w3.org/1999/xlink">
	<desc>
			Created with Pixso.
	</desc>
	<defs/>
	<path id="Vector" d="M49.87 75.39C49.58 74.15 49.65 72.98 49.95 71.7C50.6 68.88 50.71 66.02 50.36 63.08C49.83 58.65 48.2 54.77 45.63 51.2C45.09 50.46 44.81 49.21 44.23 48.89C41.54 47.35 39.52 44.83 36.57 43.71C36.43 43.66 36.25 43.66 36.16 43.56C34.26 41.65 31.66 42 29.35 41.48C25.94 40.71 22.55 41.38 19.18 42.02C18.99 42.05 18.77 42.19 18.62 42.14C16.16 41.36 14.62 42.99 12.95 44.28C8.99 47.35 5.51 50.85 3.35 55.46C1.99 58.36 1.21 61.39 1.04 64.64C0.59 73.13 3.81 79.99 10.16 85.39C13.29 88.06 17 89.65 21.14 90.46C24.65 91.13 28.1 91.07 31.47 90.31C35.06 89.5 38.35 87.81 41.24 85.43C44.32 82.9 46.85 79.88 49.14 76.64C49.64 75.93 50.12 75.36 51 75.25C51.88 75.14 52.41 74.55 52.98 73.98C57.03 69.87 61.07 65.75 65.15 61.68C70.64 56.19 76.16 50.72 81.69 45.27C85.39 41.6 88.45 37.57 89.77 32.4C90.31 30.3 90.54 28.18 90.6 26.03C90.62 25.2 90.3 24.51 89.75 23.91" stroke="#000000" stroke-opacity="1.000000" stroke-width="2.000000" stroke-linejoin="round" stroke-linecap="round"/>
	<path id="Vector" d="M71.22 41.02C72.3 40.56 72.84 39.53 73.62 38.76C78.16 34.24 82.69 29.72 87.21 25.19C87.64 24.77 88.1 24.34 88.63 24.07C89.88 23.41 90.49 22.4 90.17 21.08C87.81 11.39 82.01 4.72 72.34 2.05C63.51 -0.38 55.38 1.55 48.78 7.97C38.35 18.1 28.19 28.49 17.89 38.74C17.01 39.61 16.68 40.61 16.49 41.73" stroke="#000000" stroke-opacity="1.000000" stroke-width="2.000000" stroke-linejoin="round" stroke-linecap="round"/>
	<path id="Vector" d="M35.44 65.77C35.31 67.79 34.91 69.72 33.75 71.43C30.1 76.83 22.6 77.09 18.61 72.42C15.87 69.22 15.38 65.57 16.94 62.25C18.73 58.43 21.82 56.43 26.11 56.44C26.49 56.44 26.86 56.44 27.24 56.44" stroke="#000000" stroke-opacity="1.000000" stroke-width="2.000000" stroke-linejoin="round" stroke-linecap="round"/>
	<path id="Vector" d="M76.18 16.84C75.88 17.61 75.15 17.98 74.61 18.52C69.91 23.3 65.2 28.07 60.47 32.82C55.11 38.18 49.74 43.53 44.35 48.87" stroke="#000000" stroke-opacity="1.000000" stroke-width="2.000000" stroke-linejoin="round" stroke-linecap="round"/>
	<path id="Vector" d="M53.55 20.94C53.71 21.88 53.17 22.46 52.56 23.07C46.94 28.66 41.33 34.27 35.72 39.89C35.09 40.52 34.48 41.15 34.17 42.01" stroke="#000000" stroke-opacity="1.000000" stroke-width="2.000000" stroke-linejoin="round" stroke-linecap="round"/>
	<path id="Vector" d="M25.26 49.22C23.51 49.57 21.74 49.68 20.01 50.32C14.26 52.45 10.59 56.64 9.38 62.4C7.46 71.48 12.29 79.98 21.75 82.38C28.93 84.2 35.72 81.5 39.96 74.96C41.34 72.82 42.12 70.47 42.4 67.89C43.01 62.11 41.04 57.33 36.83 53.49C34.08 50.97 30.77 49.5 26.96 49.36C26.44 49.34 25.92 49.27 25.4 49.22" stroke="#000000" stroke-opacity="1.000000" stroke-width="2.000000" stroke-linejoin="round" stroke-linecap="round"/>
</svg>
